<svg width="111" height="142" viewBox="0 0 111 142" fill="none" xmlns="http://www.w3.org/2000/svg">
<path d="M19.0248 40.6909C18.3339 40.5017 15.4161 46.8258 13.757 54.1972C12.0318 61.8592 10.6544 67.9676 12.9912 74.8814C16.6836 85.7912 27.008 91.4023 31.2725 92.9734C32.3815 93.3827 35.8714 94.5445 40.2811 95.5699C43.4541 96.3093 44.2815 96.3181 46.0859 96.723C47.6834 97.0794 57.6558 99.4383 64.926 107.272C67.593 110.15 67.9098 111.62 70.1279 112.258C74.4715 113.508 79.1365 109.552 80.2103 108.641C81.689 107.386 82.9168 106.348 82.8772 104.948C82.8332 103.249 80.976 102.603 78.0231 99.4867C77.8998 99.3591 77.9394 99.3943 74.4627 94.9978C71.809 91.6355 69.789 89.127 67.6018 88.7178C67.4874 88.6958 66.8272 88.5813 65.9558 88.4933C64.5432 88.3525 63.4914 88.3833 63.1129 88.3877C60.1863 88.4405 56.8328 87.8772 56.8372 87.8112C56.8416 87.7584 59.1521 87.8948 60.7012 88.0048C64.8028 88.3041 66.7216 88.6649 67.6018 88.7134C73.9919 89.0566 83.2909 75.8496 83.1501 64.755C83.0753 58.7742 81.2093 54.4129 81.2093 54.4129C80.1223 51.8692 79.449 51.5919 79.0529 49.6731C78.1551 45.3207 81.0641 44.062 80.9937 39.3311C80.9276 35.0886 78.5204 31.8584 76.4959 29.1342C75.2461 27.4531 73.5254 25.6003 73.0237 25.8996C72.6408 26.124 73.4197 27.3871 73.2305 29.0066C72.8388 32.3293 68.6404 34.7982 68.1475 34.3449C67.8086 34.0324 69.5602 32.6681 70.2731 30.0496C71.9322 23.9588 66.2287 17.5159 65.1285 16.2748C61.2997 11.9532 56.7668 10.0784 56.6128 10.294C56.4939 10.4569 59.0201 11.6891 60.0279 14.4529C60.7232 16.3629 60.9212 19.6195 58.888 21.107C57.3257 22.2512 54.9316 21.9872 53.4221 20.9662C50.4779 18.977 50.6012 13.4803 52.1239 9.77914C54.3507 4.36166 59.6758 2.60571 59.1565 1.46588C58.6812 0.422868 53.9546 1.22823 49.9014 2.91817C46.5876 4.30005 39.7398 7.16062 38.2655 12.9742C37.6582 15.3727 37.4029 20.4997 39.3041 24.6761C39.6606 25.4595 40.5892 27.2991 39.9906 29.2178C39.6342 30.3621 38.7012 31.6163 37.9398 31.5063C36.8528 31.3479 37.3457 28.5797 35.7922 25.7367C33.1253 20.8562 26.6692 19.8836 25.6218 19.7251C23.1089 19.3467 20.2307 19.5667 20.1163 20.1916C20.037 20.6141 21.2649 20.9134 22.3563 21.8288C24.3851 23.5275 24.6536 26.2516 24.9044 29.2046C25.1245 31.8012 25.0805 35.9468 23.2541 40.9286C21.969 44.4405 19.7906 48.4013 18.9676 48.1328C17.9378 47.794 19.729 40.8846 19.0248 40.6909Z" stroke="white" stroke-width="2" stroke-miterlimit="10"/>
<path d="M40.7872 70.1372C43.2469 70.1372 45.2409 65.17 45.2409 59.0426C45.2409 52.9152 43.2469 47.948 40.7872 47.948C38.3275 47.948 36.3335 52.9152 36.3335 59.0426C36.3335 65.17 38.3275 70.1372 40.7872 70.1372Z" fill="white" stroke="white" stroke-width="2" stroke-miterlimit="10"/>
<path d="M66.8448 70.1372C69.3045 70.1372 71.2985 65.17 71.2985 59.0426C71.2985 52.9152 69.3045 47.948 66.8448 47.948C64.3851 47.948 62.3911 52.9152 62.3911 59.0426C62.3911 65.17 64.3851 70.1372 66.8448 70.1372Z" fill="white" stroke="white" stroke-width="2" stroke-miterlimit="10"/>
<path d="M36.2719 94.5357C36.5139 94.4653 36.5535 94.5621 38.5559 95.143C39.4053 95.3895 40.2591 95.6095 41.1129 95.8428C44.968 96.899 47.0276 96.3841 47.921 97.2511C50.8476 100.09 42.5872 119.009 33.9482 118.076C33.847 118.067 33.5874 118.028 33.2705 117.966C29.9698 117.297 27.919 114.991 26.8452 113.759C25.1377 111.792 23.6062 110.031 24.1607 108.733C24.6756 107.532 26.4579 107.941 29.1293 106.621C30.7004 105.903 32.6324 104.689 33.8074 102.585C35.7262 99.1478 34.7184 94.9978 36.2719 94.5357Z" stroke="white" stroke-width="2" stroke-miterlimit="10"/>
<path d="M20.1119 110.788C19.641 109.745 12.1991 113.156 12.1991 113.156C8.8148 114.701 5.73858 116.25 2.8604 118.837C2.01543 119.599 1.10005 120.527 1.00764 121.812C0.919619 123.027 1.60175 124.022 2.57435 125.192C4.95083 128.048 7.34051 129.892 8.27789 130.605C12.1199 133.532 14.043 134.997 14.8352 135.477C16.842 136.692 19.949 138.575 23.9582 139.535C25.8242 139.979 35.9418 142.404 39.4977 137.369C41.3417 134.76 41.2493 130.39 38.9256 128.172C34.7316 124.158 23.8526 127.758 23.813 127.494C23.8042 127.423 24.6008 127.256 25.4501 127.08C27.1885 126.715 28.0731 126.53 29.2921 126.491C30.5376 126.446 30.9864 126.592 31.1669 126.31C31.4309 125.896 30.5728 125.412 30.0138 123.846C29.6618 122.86 29.7146 122.27 29.1733 121.94C29.0104 121.843 29.0148 121.896 28.1083 121.694C27.4745 121.548 27.0609 121.456 26.5944 121.271C26.1147 121.082 25.7802 120.879 25.5778 120.756C24.0198 119.81 22.7656 118.12 22.6028 117.891C21.573 116.478 21.0669 115.211 20.926 114.745C20.4551 113.2 20.2879 111.827 20.2835 111.814C20.1779 111.145 20.1207 110.81 20.1119 110.788Z" stroke="white" stroke-width="2" stroke-miterlimit="10"/>
<path d="M35.0441 118.089C35.3213 118.358 34.45 120.202 32.8524 121.258C32.0911 121.76 31.4222 121.918 31.2373 121.958C31.0525 121.997 30.4364 122.12 29.1777 121.936C28.4912 121.834 27.4922 121.689 26.3347 121.148C24.7812 120.422 23.857 119.414 23.2981 118.793C21.8942 117.231 21.3485 115.73 20.7676 114.159C20.2483 112.76 20.1515 111.963 20.2263 111.197C20.2747 110.7 20.3451 109.965 20.838 109.296C21.9383 107.8 24.3895 107.646 24.6536 108.152C24.8032 108.438 24.1563 108.742 24.1035 109.56C24.0683 110.11 24.3191 110.568 24.9837 111.475C26.0707 112.953 26.8452 113.75 26.8452 113.75C28.4252 115.369 29.3009 116.272 30.7312 117.037C31.3253 117.359 31.9195 117.561 33.1033 117.966C33.4862 118.098 33.8162 118.199 34.2519 118.182C34.7668 118.164 34.9517 117.997 35.0441 118.089Z" stroke="white" stroke-width="2" stroke-miterlimit="10"/>
<path d="M83.0841 105.608C84.6816 104.992 89.1309 108.126 87.7666 110.876C87.5026 111.404 86.9833 111.858 85.9403 112.764C85.1041 113.49 83.6122 114.767 81.2885 115.95C79.3433 116.941 75.5542 118.868 73.0281 118.098C72.2227 117.852 71.7782 117.288 70.8848 116.157C70.2555 115.361 68.548 113.195 69.5558 112.377C70.0751 111.95 70.7616 112.346 72.5484 112.095C74.6388 111.8 76.2187 110.907 78.5336 109.596C80.1663 108.671 81.1169 108.121 81.9267 107.153C82.71 106.207 82.5956 105.798 83.0841 105.608Z" stroke="white" stroke-width="2" stroke-miterlimit="10"/>
<path d="M76.2583 135.424C75.3781 135.666 72.5572 128.845 72.1743 122.424C72.1743 122.424 71.9322 118.336 73.028 118.089C73.2481 118.041 73.3801 118.217 74.1107 118.261C74.6872 118.296 75.1801 118.221 75.4045 118.186C75.4045 118.186 75.7346 118.133 76.069 118.045C79.0352 117.275 82.5251 115.259 82.5251 115.259C82.5251 115.259 86.926 112.716 87.7666 110.872C88.035 110.278 88.0218 109.78 88.0218 109.78C88.0042 109.199 87.7534 108.993 87.8106 108.742C88.0086 107.919 90.9924 108.055 90.9924 108.055C101.497 108.548 102.237 108.214 104.138 109.419C106.827 111.127 108.53 113.57 108.429 113.68C108.376 113.737 107.821 113.165 106.875 112.76C105.441 112.148 104.063 112.342 103.341 112.452C97.4265 113.358 91.3533 117.103 91.3533 117.103C91.3533 117.103 85.6894 120.598 80.0959 126.614C78.6656 128.154 77.3145 129.8 76.7028 132.19C76.1879 134.179 76.6148 135.327 76.2583 135.424Z" stroke="white" stroke-width="2" stroke-miterlimit="10"/>
<path d="M109.018 114.454C106.765 111.153 95.7058 113.807 88.1979 119.097C80.7648 124.334 74.5375 133.765 76.87 137C79.2113 140.248 90.1299 137.171 97.4573 132C104.701 126.891 111.267 117.746 109.018 114.454Z" stroke="white" stroke-width="2" stroke-miterlimit="10"/>
</svg>
