<svg width="251" height="321" viewBox="0 0 251 321" fill="none" xmlns="http://www.w3.org/2000/svg">
<path d="M42.9574 92.1886C41.3874 91.7586 34.7574 106.129 30.9874 122.879C27.0674 140.289 23.9374 154.169 29.2474 169.879C37.6374 194.669 61.0974 207.419 70.7874 210.989C73.3074 211.919 81.2374 214.559 91.2574 216.889C98.4674 218.569 100.347 218.589 104.447 219.509C108.077 220.319 130.737 225.679 147.257 243.479C153.317 250.019 154.037 253.359 159.077 254.809C168.947 257.649 179.547 248.659 181.987 246.589C185.347 243.739 188.137 241.379 188.047 238.199C187.947 234.339 183.727 232.869 177.017 225.789C176.737 225.499 176.827 225.579 168.927 215.589C162.897 207.949 158.307 202.249 153.337 201.319C153.077 201.269 151.577 201.009 149.597 200.809C146.387 200.489 143.997 200.559 143.137 200.569C136.487 200.689 128.867 199.409 128.877 199.259C128.887 199.139 134.137 199.449 137.657 199.699C146.977 200.379 151.337 201.199 153.337 201.309C167.857 202.089 188.987 172.079 188.667 146.869C188.497 133.279 184.257 123.369 184.257 123.369C181.787 117.589 180.257 116.959 179.357 112.599C177.317 102.709 183.927 99.8486 183.767 89.0986C183.617 79.4586 178.147 72.1186 173.547 65.9286C170.707 62.1086 166.797 57.8986 165.657 58.5786C164.787 59.0886 166.557 61.9586 166.127 65.6386C165.237 73.1886 155.697 78.7986 154.577 77.7686C153.807 77.0586 157.787 73.9586 159.407 68.0086C163.177 54.1686 150.217 39.5286 147.717 36.7086C139.017 26.8886 128.717 22.6286 128.367 23.1186C128.097 23.4886 133.837 26.2886 136.127 32.5686C137.707 36.9086 138.157 44.3086 133.537 47.6886C129.987 50.2886 124.547 49.6886 121.117 47.3686C114.427 42.8486 114.707 30.3586 118.167 21.9486C123.227 9.6386 135.327 5.6486 134.147 3.0586C133.067 0.6886 122.327 2.5186 113.117 6.3586C105.587 9.4986 90.0274 15.9986 86.6774 29.2086C85.2974 34.6586 84.7174 46.3086 89.0374 55.7986C89.8474 57.5786 91.9574 61.7586 90.5974 66.1186C89.7874 68.7186 87.6674 71.5686 85.9374 71.3186C83.4674 70.9586 84.5873 64.6686 81.0573 58.2086C74.9973 47.1186 60.3273 44.9086 57.9473 44.5486C52.2373 43.6886 45.6974 44.1886 45.4374 45.6086C45.2574 46.5686 48.0473 47.2486 50.5273 49.3286C55.1373 53.1886 55.7474 59.3786 56.3174 66.0886C56.8174 71.9886 56.7174 81.4086 52.5674 92.7286C49.6474 100.709 44.6974 109.709 42.8274 109.099C40.4874 108.329 44.5574 92.6286 42.9574 92.1886Z" fill="white" stroke="url(#paint0_linear_57_3)" stroke-width="4" stroke-miterlimit="10"/>
<path d="M92.4073 159.099C97.9965 159.099 102.527 147.812 102.527 133.889C102.527 119.965 97.9965 108.679 92.4073 108.679C86.8182 108.679 82.2874 119.965 82.2874 133.889C82.2874 147.812 86.8182 159.099 92.4073 159.099Z" fill="url(#paint1_linear_57_3)" stroke="url(#paint2_linear_57_3)" stroke-width="4" stroke-miterlimit="10"/>
<path d="M151.617 159.099C157.206 159.099 161.737 147.812 161.737 133.889C161.737 119.965 157.206 108.679 151.617 108.679C146.028 108.679 141.497 119.965 141.497 133.889C141.497 147.812 146.028 159.099 151.617 159.099Z" fill="url(#paint3_linear_57_3)" stroke="url(#paint4_linear_57_3)" stroke-width="4" stroke-miterlimit="10"/>
<path d="M82.1473 214.539C82.6973 214.379 82.7873 214.599 87.3373 215.919C89.2673 216.479 91.2073 216.979 93.1473 217.509C101.907 219.909 106.587 218.739 108.617 220.709C115.267 227.159 96.4973 270.149 76.8673 268.029C76.6373 268.009 76.0474 267.919 75.3274 267.779C67.8274 266.259 63.1673 261.019 60.7273 258.219C56.8473 253.749 53.3674 249.749 54.6274 246.799C55.7974 244.069 59.8473 244.999 65.9173 241.999C69.4873 240.369 73.8774 237.609 76.5474 232.829C80.9074 225.019 78.6173 215.589 82.1473 214.539Z" fill="white" stroke="url(#paint5_linear_57_3)" stroke-width="4" stroke-miterlimit="10"/>
<path d="M45.4274 251.469C44.3574 249.099 27.4473 256.849 27.4473 256.849C19.7573 260.359 12.7673 263.879 6.22734 269.759C4.30734 271.489 2.22735 273.599 2.01735 276.519C1.81735 279.279 3.36735 281.539 5.57735 284.199C10.9773 290.689 16.4074 294.879 18.5374 296.499C27.2674 303.149 31.6373 306.479 33.4373 307.569C37.9973 310.329 45.0573 314.609 54.1673 316.789C58.4073 317.799 81.3973 323.309 89.4773 311.869C93.6673 305.939 93.4574 296.009 88.1774 290.969C78.6474 281.849 53.9273 290.029 53.8373 289.429C53.8173 289.269 55.6273 288.889 57.5573 288.489C61.5073 287.659 63.5174 287.239 66.2874 287.149C69.1174 287.049 70.1373 287.379 70.5473 286.739C71.1473 285.799 69.1974 284.699 67.9274 281.139C67.1274 278.899 67.2473 277.559 66.0173 276.809C65.6473 276.589 65.6574 276.709 63.5974 276.249C62.1574 275.919 61.2174 275.709 60.1574 275.289C59.0674 274.859 58.3074 274.399 57.8474 274.119C54.3074 271.969 51.4573 268.129 51.0873 267.609C48.7473 264.399 47.5973 261.519 47.2773 260.459C46.2073 256.949 45.8274 253.829 45.8174 253.799C45.5774 252.279 45.4474 251.519 45.4274 251.469Z" fill="white" stroke="url(#paint6_linear_57_3)" stroke-width="4" stroke-miterlimit="10"/>
<path d="M79.3573 268.059C79.9873 268.669 78.0074 272.859 74.3774 275.259C72.6474 276.399 71.1274 276.759 70.7074 276.849C70.2874 276.939 68.8873 277.219 66.0273 276.799C64.4673 276.569 62.1974 276.239 59.5674 275.009C56.0374 273.359 53.9373 271.069 52.6673 269.659C49.4773 266.109 48.2373 262.699 46.9173 259.129C45.7373 255.949 45.5174 254.139 45.6874 252.399C45.7974 251.269 45.9574 249.599 47.0774 248.079C49.5774 244.679 55.1474 244.329 55.7474 245.479C56.0874 246.129 54.6174 246.819 54.4974 248.679C54.4174 249.929 54.9874 250.969 56.4974 253.029C58.9674 256.389 60.7273 258.199 60.7273 258.199C64.3173 261.879 66.3073 263.929 69.5573 265.669C70.9073 266.399 72.2573 266.859 74.9473 267.779C75.8173 268.079 76.5673 268.309 77.5573 268.269C78.7273 268.229 79.1473 267.849 79.3573 268.059Z" fill="white" stroke="url(#paint7_linear_57_3)" stroke-width="4" stroke-miterlimit="10"/>
<path d="M188.517 239.699C192.147 238.299 202.257 245.419 199.157 251.669C198.557 252.869 197.377 253.899 195.007 255.959C193.107 257.609 189.717 260.509 184.437 263.199C180.017 265.449 171.407 269.829 165.667 268.079C163.837 267.519 162.827 266.239 160.797 263.669C159.367 261.859 155.487 256.939 157.777 255.079C158.957 254.109 160.517 255.009 164.577 254.439C169.327 253.769 172.917 251.739 178.177 248.759C181.887 246.659 184.047 245.409 185.887 243.209C187.667 241.059 187.407 240.129 188.517 239.699Z" fill="white" stroke="url(#paint8_linear_57_3)" stroke-width="4" stroke-miterlimit="10"/>
<path d="M173.007 307.449C171.007 307.999 164.597 292.499 163.727 277.909C163.727 277.909 163.177 268.619 165.667 268.059C166.167 267.949 166.467 268.349 168.127 268.449C169.437 268.529 170.557 268.359 171.067 268.279C171.067 268.279 171.817 268.159 172.577 267.959C179.317 266.209 187.247 261.629 187.247 261.629C187.247 261.629 197.247 255.849 199.157 251.659C199.767 250.309 199.737 249.179 199.737 249.179C199.697 247.859 199.127 247.389 199.257 246.819C199.707 244.949 206.487 245.259 206.487 245.259C230.357 246.379 232.037 245.619 236.357 248.359C242.467 252.239 246.337 257.789 246.107 258.039C245.987 258.169 244.727 256.869 242.577 255.949C239.317 254.559 236.187 254.999 234.547 255.249C221.107 257.309 207.307 265.819 207.307 265.819C207.307 265.819 194.437 273.759 181.727 287.429C178.477 290.929 175.407 294.669 174.017 300.099C172.847 304.619 173.817 307.229 173.007 307.449Z" fill="white" stroke="url(#paint9_linear_57_3)" stroke-width="4" stroke-miterlimit="10"/>
<path d="M247.447 259.799C242.327 252.299 217.197 258.329 200.137 270.349C183.247 282.249 169.097 303.679 174.397 311.029C179.717 318.409 204.527 311.419 221.177 299.669C237.637 288.059 252.557 267.279 247.447 259.799Z" fill="url(#paint10_linear_57_3)" stroke="url(#paint11_linear_57_3)" stroke-width="4" stroke-miterlimit="10"/>
<defs>
<linearGradient id="paint0_linear_57_3" x1="107.565" y1="-0.0146998" x2="107.565" y2="257.343" gradientUnits="userSpaceOnUse">
<stop offset="0.00558659" stop-color="#AAC6E9"/>
<stop offset="1" stop-color="#1D70B7"/>
</linearGradient>
<linearGradient id="paint1_linear_57_3" x1="82.2871" y1="133.887" x2="102.518" y2="133.887" gradientUnits="userSpaceOnUse">
<stop stop-color="#1D70B7"/>
<stop offset="1" stop-color="#1D70B7"/>
</linearGradient>
<linearGradient id="paint2_linear_57_3" x1="80.2871" y1="133.887" x2="104.518" y2="133.887" gradientUnits="userSpaceOnUse">
<stop stop-color="#1D70B7"/>
<stop offset="1" stop-color="#1D70B7"/>
</linearGradient>
<linearGradient id="paint3_linear_57_3" x1="141.506" y1="133.887" x2="161.737" y2="133.887" gradientUnits="userSpaceOnUse">
<stop stop-color="#1D70B7"/>
<stop offset="1" stop-color="#1D70B7"/>
</linearGradient>
<linearGradient id="paint4_linear_57_3" x1="139.506" y1="133.887" x2="163.737" y2="133.887" gradientUnits="userSpaceOnUse">
<stop stop-color="#1D70B7"/>
<stop offset="1" stop-color="#1D70B7"/>
</linearGradient>
<linearGradient id="paint5_linear_57_3" x1="84.5567" y1="212.683" x2="78.9532" y2="270.239" gradientUnits="userSpaceOnUse">
<stop stop-color="#1D70B7"/>
<stop offset="1" stop-color="#1D70B7"/>
</linearGradient>
<linearGradient id="paint6_linear_57_3" x1="47.201" y1="249.015" x2="47.201" y2="320.996" gradientUnits="userSpaceOnUse">
<stop stop-color="#1D70B7"/>
<stop offset="1" stop-color="#1D70B7"/>
</linearGradient>
<linearGradient id="paint7_linear_57_3" x1="62.5545" y1="242.892" x2="62.5545" y2="279.024" gradientUnits="userSpaceOnUse">
<stop stop-color="#1D70B7"/>
<stop offset="1" stop-color="#1D70B7"/>
</linearGradient>
<linearGradient id="paint8_linear_57_3" x1="173.257" y1="244.033" x2="185.38" y2="264.508" gradientUnits="userSpaceOnUse">
<stop stop-color="#1D70B7"/>
<stop offset="1" stop-color="#1D70B7"/>
</linearGradient>
<linearGradient id="paint9_linear_57_3" x1="189.701" y1="249.804" x2="211.666" y2="286.906" gradientUnits="userSpaceOnUse">
<stop stop-color="#1D70B7"/>
<stop offset="1" stop-color="#1D70B7"/>
</linearGradient>
<linearGradient id="paint10_linear_57_3" x1="173.272" y1="285.273" x2="248.467" y2="285.273" gradientUnits="userSpaceOnUse">
<stop stop-color="#1D70B7"/>
<stop offset="1" stop-color="#1D70B7"/>
</linearGradient>
<linearGradient id="paint11_linear_57_3" x1="184.48" y1="282.435" x2="220.687" y2="309.604" gradientUnits="userSpaceOnUse">
<stop stop-color="#1D70B7"/>
<stop offset="1" stop-color="#1D70B7"/>
</linearGradient>
</defs>
</svg>
