<svg width="30" height="30" viewBox="0 0 30 30" fill="none" xmlns="http://www.w3.org/2000/svg">
<path d="M20.3913 4.04697C21.835 4.05128 23.2184 4.6267 24.2392 5.64756C25.2601 6.66842 25.8355 8.05177 25.8398 9.49547V20.3913C25.8355 21.835 25.2601 23.2184 24.2392 24.2392C23.2184 25.2601 21.835 25.8355 20.3913 25.8398H9.49547C8.05177 25.8355 6.66842 25.2601 5.64756 24.2392C4.6267 23.2184 4.05128 21.835 4.04697 20.3913V9.49547C4.05128 8.05177 4.6267 6.66842 5.64756 5.64756C6.66842 4.6267 8.05177 4.05128 9.49547 4.04697H20.3913ZM20.3913 1.86792H9.49547C5.30023 1.86792 1.86792 5.30023 1.86792 9.49547V20.3913C1.86792 24.5865 5.30023 28.0189 9.49547 28.0189H20.3913C24.5865 28.0189 28.0189 24.5865 28.0189 20.3913V9.49547C28.0189 5.30023 24.5865 1.86792 20.3913 1.86792Z" fill="white"/>
<path d="M22.0257 9.49548C21.7025 9.49548 21.3865 9.39962 21.1177 9.22003C20.8489 9.04043 20.6394 8.78517 20.5157 8.48651C20.392 8.18786 20.3596 7.85923 20.4227 7.54218C20.4858 7.22513 20.6414 6.9339 20.87 6.70532C21.0986 6.47674 21.3898 6.32108 21.7069 6.25801C22.0239 6.19495 22.3525 6.22732 22.6512 6.35102C22.9499 6.47473 23.2051 6.68422 23.3847 6.953C23.5643 7.22178 23.6602 7.53778 23.6602 7.86104C23.6606 8.07581 23.6187 8.28855 23.5367 8.48706C23.4547 8.68557 23.3343 8.86593 23.1825 9.01779C23.0306 9.16966 22.8502 9.29003 22.6517 9.372C22.4532 9.45398 22.2405 9.49594 22.0257 9.49548ZM14.9434 10.5847C15.8054 10.5847 16.6481 10.8403 17.3649 11.3193C18.0817 11.7982 18.6404 12.479 18.9703 13.2754C19.3002 14.0718 19.3865 14.9482 19.2183 15.7937C19.0501 16.6392 18.635 17.4159 18.0254 18.0255C17.4159 18.635 16.6392 19.0502 15.7937 19.2183C14.9482 19.3865 14.0718 19.3002 13.2754 18.9703C12.4789 18.6404 11.7982 18.0817 11.3193 17.365C10.8403 16.6482 10.5847 15.8055 10.5847 14.9434C10.5859 13.7878 11.0455 12.6799 11.8627 11.8627C12.6798 11.0456 13.7878 10.5859 14.9434 10.5847ZM14.9434 8.40566C13.6503 8.40566 12.3863 8.78909 11.3112 9.50747C10.2361 10.2258 9.39812 11.2469 8.9033 12.4415C8.40847 13.6361 8.279 14.9507 8.53126 16.2188C8.78352 17.487 9.40618 18.652 10.3205 19.5663C11.2348 20.4806 12.3997 21.1033 13.6679 21.3555C14.9361 21.6078 16.2506 21.4783 17.4453 20.9835C18.6399 20.4887 19.6609 19.6507 20.3793 18.5756C21.0977 17.5004 21.4811 16.2364 21.4811 14.9434C21.4811 13.2095 20.7923 11.5466 19.5663 10.3205C18.3402 9.09446 16.6773 8.40566 14.9434 8.40566Z" fill="white"/>
</svg>
