<svg width="26" height="26" viewBox="0 0 26 26" fill="none" xmlns="http://www.w3.org/2000/svg">
<path d="M13 1C10.6266 1 8.30655 1.70379 6.33316 3.02236C4.35977 4.34094 2.8217 6.21508 1.91345 8.4078C1.0052 10.6005 0.767559 13.0133 1.23058 15.3411C1.6936 17.6689 2.83649 19.807 4.51472 21.4853C6.19295 23.1635 8.33115 24.3064 10.6589 24.7694C12.9867 25.2324 15.3995 24.9948 17.5922 24.0865C19.7849 23.1783 21.6591 21.6402 22.9776 19.6668C24.2962 17.6935 25 15.3734 25 13C25 9.8174 23.7357 6.76515 21.4853 4.51472C19.2348 2.26428 16.1826 1 13 1Z" stroke="#C1E9FF" stroke-width="2" stroke-miterlimit="10"/>
<path d="M9.18176 10.0879C9.18176 10.0879 9.23904 8.89476 10.5161 7.86726C11.2736 7.25703 12.1818 7.08044 12.9999 7.06816C13.7452 7.05862 14.4106 7.18203 14.8088 7.37157C15.4906 7.69612 16.8181 8.48839 16.8181 10.1732C16.8181 11.9459 15.659 12.7511 14.3384 13.6368C13.0177 14.5225 12.659 15.4838 12.659 16.4773" stroke="#C1E9FF" stroke-width="2" stroke-miterlimit="10" stroke-linecap="round"/>
<path d="M12.625 20.5C13.2463 20.5 13.75 19.9963 13.75 19.375C13.75 18.7537 13.2463 18.25 12.625 18.25C12.0037 18.25 11.5 18.7537 11.5 19.375C11.5 19.9963 12.0037 20.5 12.625 20.5Z" fill="#C1E9FF"/>
</svg>
