<svg width="58" height="60" viewBox="0 0 58 60" fill="none" xmlns="http://www.w3.org/2000/svg">
<path d="M57.88 38.81C57.59 38.43 57.35 37.94 56.97 37.62C55.2 36.18 53.4 34.76 51.57 33.38C51.05 32.99 51.01 32.58 51.04 32C51.09 30.66 51.09 29.3099 51.03 27.9699C51 27.3899 51.06 26.98 51.57 26.59C53.38 25.22 55.14 23.8 56.93 22.4C57.85 21.68 57.99 21.04 57.4 20.01C55.52 16.74 53.64 13.48 51.75 10.21C51.2 9.26999 50.63 9.06994 49.62 9.46994C47.4 10.3599 45.18 11.2499 42.97 12.1599C42.62 12.2999 42.39 12.24 42.07 12.05C40.7 11.22 39.29 10.4399 37.91 9.59995C37.69 9.46995 37.48 9.16995 37.44 8.91995C37.08 6.52995 36.77 4.12998 36.41 1.72998C36.27 0.77998 35.7 0.329956 34.75 0.329956C30.96 0.329956 27.17 0.329956 23.38 0.329956C22.26 0.329956 21.75 0.729977 21.59 1.81998C21.24 4.20998 20.93 6.60998 20.58 9.00998C20.55 9.20998 20.38 9.43995 20.2 9.53995C18.76 10.3999 17.3 11.2199 15.88 12.0999C15.56 12.2999 15.34 12.26 15.04 12.14C12.85 11.24 10.65 10.3599 8.44999 9.47995C7.39999 9.05995 6.80999 9.24999 6.25999 10.21C4.38999 13.45 2.52 16.7 0.650004 19.95C0.0100037 21.06 0.140004 21.65 1.15 22.44C2.97 23.87 4.76996 25.3099 6.59996 26.7199C6.91996 26.9699 7.01999 27.22 7.00999 27.62C6.97999 29.19 7.01997 30.76 6.98997 32.33C6.97997 32.61 6.83998 32.9899 6.62998 33.1599C4.79998 34.6499 2.94995 36.1 1.09995 37.56C0.159955 38.3 0.0299744 38.92 0.619974 39.95C2.47997 43.2 4.34995 46.45 6.21995 49.69C6.80995 50.71 7.35999 50.9 8.44999 50.46C10.65 49.58 12.85 48.7 15.04 47.8C15.39 47.66 15.62 47.69 15.94 47.89C17.11 48.63 18.26 49.43 19.51 50.01C20.34 50.39 20.63 50.91 20.73 51.74C20.98 53.83 21.28 55.92 21.56 58.01C21.72 59.17 22.23 59.61 23.39 59.61C27.18 59.61 30.97 59.61 34.76 59.61C35.68 59.61 36.29 59.12 36.42 58.2C36.76 55.83 37.07 53.45 37.43 51.08C37.47 50.81 37.7 50.49 37.94 50.34C39.29 49.51 40.68 48.7499 42.03 47.9099C42.4 47.6799 42.66 47.67 43.04 47.83C45.19 48.72 47.34 49.58 49.5 50.44C50.62 50.89 51.2 50.69 51.79 49.67C53.67 46.41 55.55 43.14 57.43 39.87C57.6 39.62 57.69 39.29 57.88 38.81ZM29 19.65C34.64 19.53 39.41 24.36 39.34 30.12C39.27 35.66 34.71 40.3999 29.02 40.3499C23.21 40.3099 18.7 35.74 18.69 29.93C18.67 24.23 23.42 19.56 29 19.65Z" fill="white"/>
</svg>
