<svg width="30" height="30" viewBox="0 0 30 30" fill="none" xmlns="http://www.w3.org/2000/svg">
<path d="M24.0606 7.0397C23.8715 6.94196 23.6874 6.83481 23.509 6.71865C22.9902 6.37569 22.5146 5.97157 22.0923 5.51501C21.0358 4.30611 20.6412 3.0797 20.4958 2.22104H20.5016C20.3802 1.50831 20.4304 1.04716 20.438 1.04716H15.6258V19.6552C15.6258 19.905 15.6258 20.1519 15.6153 20.3959C15.6153 20.4263 15.6124 20.4543 15.6106 20.487C15.6106 20.5004 15.6106 20.5144 15.6077 20.5284V20.539C15.557 21.2066 15.3429 21.8516 14.9844 22.4171C14.626 22.9826 14.134 23.4514 13.5518 23.7821C12.945 24.1273 12.2588 24.3084 11.5607 24.3075C9.31862 24.3075 7.50148 22.4793 7.50148 20.2214C7.50148 17.9636 9.31862 16.1353 11.5607 16.1353C11.9851 16.1349 12.4069 16.2017 12.8105 16.3332L12.8163 11.4334C11.5913 11.2752 10.3467 11.3725 9.16123 11.7193C7.97571 12.0662 6.87493 12.6549 5.92834 13.4484C5.0989 14.1691 4.40159 15.029 3.86778 15.9894C3.66465 16.3396 2.89821 17.747 2.8054 20.0311C2.74703 21.3276 3.13637 22.6707 3.322 23.2258V23.2375C3.43874 23.5644 3.89113 24.6799 4.62838 25.6203C5.22287 26.3746 5.92524 27.0373 6.71287 27.5869V27.5752L6.72454 27.5869C9.05419 29.1699 11.6372 29.066 11.6372 29.066C12.0843 29.0479 13.5822 29.066 15.2831 28.2599C17.1697 27.3662 18.2438 26.0347 18.2438 26.0347C18.93 25.2392 19.4756 24.3325 19.8572 23.3537C20.2927 22.209 20.438 20.8361 20.438 20.2874V10.4154C20.4964 10.4504 21.2739 10.9647 21.2739 10.9647C21.2739 10.9647 22.3941 11.6827 24.1418 12.1502C25.3956 12.4829 27.0849 12.553 27.0849 12.553V7.77578C26.493 7.83999 25.2911 7.6532 24.0606 7.0397Z" fill="white"/>
</svg>
